<svg xmlns="http://www.w3.org/2000/svg" id="Layer_1" data-name="Layer 1" width="205" height="5.09" viewBox="0 0 205 5.09">
	<defs>
		<style>
			.cls-1{fill:none;stroke:#121212;stroke-linecap:round;stroke-linejoin:round;}
		</style>
	</defs>
	<title>
		Separator
	</title>
	<g id="Group_780" data-name="Group 780">
		<path id="Path_500" data-name="Path 500" class="cls-1" d="M34.7.71,31,4.8,27.72.71l-3,4.09-3-4.09L17.83,4.8,15,.71,11.42,4.8,7.7.71,4.13,4.8.7.71" transform="translate(-0.2 -0.21)" />
		<path id="Path_652" data-name="Path 652" class="cls-1" d="M102.7.71,99,4.8,95.72.71l-3,4.09-3-4.09L85.83,4.8,83,.71,79.42,4.8,75.7.71,72.13,4.8,68.7.71" transform="translate(-0.2 -0.21)" />
		<path id="Path_650" data-name="Path 650" class="cls-1" d="M68.7.71,65,4.8,61.72.71l-3,4.09-3-4.09L51.83,4.8,49,.71,45.42,4.8,41.7.71,38.13,4.8,34.7.71" transform="translate(-0.2 -0.21)" />
		<path id="Path_651" data-name="Path 651" class="cls-1" d="M136.7.71,133,4.8,129.72.71l-3,4.09-3-4.09L119.83,4.8,117,.71,113.42,4.8,109.7.71,106.13,4.8,102.7.71" transform="translate(-0.2 -0.21)" />
		<path id="Path_653" data-name="Path 653" class="cls-1" d="M170.7.71,167,4.8,163.72.71l-3,4.09-3-4.09L153.83,4.8,151,.71,147.42,4.8,143.7.71,140.13,4.8,136.7.71" transform="translate(-0.2 -0.21)" />
		<path id="Path_654" data-name="Path 654" class="cls-1" d="M204.7.71,201,4.8,197.72.71l-3,4.09-3-4.09L187.83,4.8,185,.71,181.42,4.8,177.7.71,174.13,4.8,170.7.71" transform="translate(-0.2 -0.21)" />
	</g>
</svg>
