<svg xmlns="http://www.w3.org/2000/svg" width="496.46" height="5.5" viewBox="0 0 496.46 5.5">
	<g>
		<g>
			<g>
				<path d="M1.05,4.75l5.31-4,4.65,4,4.34-4,4.34,4,5.44-4,4,4,5.16-4,5.31,4,5.1-4,4.88,4" transform="translate(-0.3 0)">
				</path>
				<path d="M49.57,4.75l5.32-4,4.65,4,4.34-4,4.33,4,5.44-4,4,4,5.16-4,5.3,4,5.1-4,4.89,4" transform="translate(-0.3 0)">
				</path>
			</g>
			<g>
				<path d="M98.05,4.75l5.31-4,4.65,4,4.34-4,4.34,4,5.44-4,4,4,5.16-4,5.31,4,5.1-4,4.88,4" transform="translate(-0.3 0)">
				</path>
				<path d="M146.57,4.75l5.32-4,4.65,4,4.34-4,4.33,4,5.44-4,4,4,5.15-4,5.31,4,5.1-4,4.88,4" transform="translate(-0.3 0)">
				</path>
			</g>
			<g>
				<path d="M195.05,4.75l5.31-4,4.65,4,4.34-4,4.34,4,5.44-4,4,4,5.16-4,5.31,4,5.1-4,4.88,4" transform="translate(-0.3 0)">
				</path>
				<path d="M243.57,4.75l5.32-4,4.65,4,4.34-4,4.33,4,5.44-4,4,4,5.15-4,5.31,4,5.1-4,4.89,4" transform="translate(-0.3 0)">
				</path>
			</g>
			<g>
				<path d="M292.05,4.75l5.31-4,4.65,4,4.34-4,4.34,4,5.44-4,4,4,5.16-4,5.31,4,5.1-4,4.88,4" transform="translate(-0.3 0)">
				</path>
				<path d="M340.57,4.75l5.32-4,4.65,4,4.34-4,4.33,4,5.44-4,4,4,5.15-4,5.31,4,5.1-4,4.89,4" transform="translate(-0.3 0)">
				</path>
			</g>
			<g>
				<path d="M389.05,4.75l5.31-4,4.65,4,4.34-4,4.34,4,5.44-4,4,4,5.16-4,5.31,4,5.1-4,4.88,4" transform="translate(-0.3 0)">
				</path>
				<path d="M437.57,4.75l5.32-4,4.65,4,4.34-4,4.33,4,5.44-4,4,4,5.15-4,5.31,4,5.1-4,4.89,4" transform="translate(-0.3 0)">
				</path>
			</g>
		</g>
		<path d="M486.05,4.75l5.31-4,4.65,4" transform="translate(-0.3 0)">
		</path>
	</g>
</svg>
